<?xml version="1.0" encoding="UTF-8" standalone="no"?>
<svg
   width="168"
   height="42"
   viewBox="0 0 152 38"
   fill="none"
   version="1.1"
   id="svg33"
   sodipodi:docname="vb_logo_white.svg"
   inkscape:version="1.2.2 (b0a84865, 2022-12-01)"
   xmlns:inkscape="http://www.inkscape.org/namespaces/inkscape"
   xmlns:sodipodi="http://sodipodi.sourceforge.net/DTD/sodipodi-0.dtd"
   xmlns="http://www.w3.org/2000/svg"
   xmlns:svg="http://www.w3.org/2000/svg">
  <sodipodi:namedview
     id="namedview35"
     pagecolor="#ffffff"
     bordercolor="#000000"
     borderopacity="0.25"
     inkscape:showpageshadow="2"
     inkscape:pageopacity="0.0"
     inkscape:pagecheckerboard="0"
     inkscape:deskcolor="#d1d1d1"
     showgrid="false"
     inkscape:zoom="7.4166667"
     inkscape:cx="84"
     inkscape:cy="21.101124"
     inkscape:window-width="1390"
     inkscape:window-height="1205"
     inkscape:window-x="0"
     inkscape:window-y="25"
     inkscape:window-maximized="0"
     inkscape:current-layer="svg33" />
  <g
     clip-path="url(#clip0_214_196)"
     id="g26"
     style="fill:#ffffff">
    <path
       d="M13.9002 23.84L15.8802 9.11H0.160156V15.93H11.9302L13.9002 23.84Z"
       fill="#004E68"
       id="path2"
       style="fill:#ffffff" />
    <path
       d="M22.14 8.96L16.52 32.13H10.46L5.78004 19.88H0.0400391V36.99H25.86V8.96H22.14Z"
       fill="#004E68"
       id="path4"
       style="fill:#ffffff" />
    <path
       d="M42.0899 18.69C41.8299 18.65 41.7599 18.31 41.9999 18.18C43.6499 17.32 46.5132 15.0602 46.5132 9.84025C46.5132 3.43025 40.5205 0.455469 38.8199 0.130012C37.5725 -0.1087 35.4136 1.16937e-05 36.45 1.16937e-05H29.1299L29.2799 37.05H39.8399C40.9099 37.05 47.1399 36.57 47.0799 26.19C47.0499 20.79 43.8299 18.95 42.0999 18.68L42.0899 18.69ZM37.5499 30.99H35.0699V20.99H37.4499C37.8899 20.99 41.1399 22.26 41.1399 25.79C41.1399 28.78 38.8699 30.43 38.1699 30.87C38.0399 30.95 37.6999 30.99 37.5499 30.99ZM37.6599 16.12H35.0699V6.11001H37.2499C37.3899 6.11001 37.5199 6.13001 37.6499 6.19001C38.4199 6.52001 41.1399 7.88001 41.1399 10.91C41.1399 13.77 39.0499 15.41 38.2599 15.93C38.0799 16.05 37.8699 16.11 37.6499 16.11L37.6599 16.12Z"
       fill="#004E68"
       id="path6"
       style="fill:#ffffff" />
    <path
       d="M55.0601 9.04H49.0801V32.24C49.0801 32.24 49.5201 37.09 54.0801 37.09C58.6401 37.09 59.1301 33.92 59.1301 33.92V36.99H65.0701V9.04H59.1301V28.7C59.1301 28.7 59.1601 31.15 56.9701 31.12C54.7801 31.09 55.0701 29.38 55.0701 29.38V9.04H55.0601Z"
       fill="#004E68"
       id="path8"
       style="fill:#ffffff" />
    <path
       d="M75.2501 0H68.1401V36.98H75.2501V0Z"
       fill="#004E68"
       id="path10"
       style="fill:#ffffff" />
    <path
       d="M84.4498 0H77.3398V36.98H84.4498V0Z"
       fill="#004E68"
       id="path12"
       style="fill:#ffffff" />
    <path
       d="M124.21 9.03H117.1V36.98H124.21V9.03Z"
       fill="#004E68"
       id="path14"
       style="fill:#ffffff" />
    <path
       d="M124.21 0.0599995H117.1V7.1H124.21V0.0599995Z"
       fill="#004E68"
       id="path16"
       style="fill:#ffffff" />
    <path
       d="M136.26 9.03C134.9 9.03 133.44 9.99 133.26 11.61V9.03H126.15V36.98H133.26V15.69C133.26 13.92 136.26 13.44 136.26 15.33V36.98H143.37V12.94C143.37 9.29 141.09 9.02 136.26 9.02V9.03Z"
       fill="#004E68"
       id="path18"
       style="fill:#ffffff" />
    <path
       d="M113.19 31.03C112.61 30.95 112.19 30.45 112.19 29.87V14.1H115.08V8.96H112.19V2.04H105.08V8.97H104.09V14.11H105.08V32.65C105.08 35.05 107.02 36.99 109.42 36.99H115.11V31.16L113.19 31.04V31.03Z"
       fill="#004E68"
       id="path20"
       style="fill:#ffffff" />
    <path
       d="M103.03 16.2C103.03 16.2 101.53 9.06 95.0198 9.06C88.5098 9.06 87.0598 16.38 86.7998 18.81C86.5398 21.24 86.5298 25.95 86.7998 28.28C87.1498 31.35 90.0398 37.15 96.2598 37.15C101.97 37.15 102.09 34.28 102.09 34.28V29.01C102.09 29.01 100.22 30.92 96.8798 31.02C91.8398 31.17 92.9598 25.99 92.9598 25.99H103.03V16.19V16.2ZM97.1398 21H92.9598V17.31C92.9598 17.31 92.8198 14.46 95.0998 14.46C97.3798 14.46 97.1398 17.31 97.1398 17.31V21Z"
       fill="#004E68"
       id="path22"
       style="fill:#ffffff" />
    <path
       d="M151.29 10.48C151.29 12.3 149.86 13.73 148 13.73C146.14 13.73 144.69 12.3 144.69 10.48C144.69 8.66 146.16 7.27 148 7.27C149.84 7.27 151.29 8.7 151.29 10.48ZM145.51 10.48C145.51 11.91 146.57 13.05 148.02 13.05C149.47 13.05 150.47 11.91 150.47 10.5C150.47 9.09 149.43 7.91 148 7.91C146.57 7.91 145.51 9.07 145.51 10.48ZM147.49 12.16H146.75V8.95C147.04 8.89 147.45 8.85 147.98 8.85C148.59 8.85 148.86 8.95 149.1 9.09C149.28 9.23 149.41 9.48 149.41 9.79C149.41 10.14 149.14 10.42 148.75 10.53V10.57C149.06 10.69 149.24 10.92 149.34 11.35C149.44 11.84 149.5 12.04 149.58 12.15H148.78C148.68 12.03 148.62 11.74 148.52 11.37C148.46 11.02 148.27 10.86 147.86 10.86H147.51V12.15L147.49 12.16ZM147.51 10.34H147.86C148.27 10.34 148.6 10.2 148.6 9.87C148.6 9.58 148.38 9.38 147.91 9.38C147.71 9.38 147.58 9.4 147.5 9.42V10.34H147.51Z"
       fill="#004E68"
       id="path24"
       style="fill:#ffffff" />
  </g>
  <defs
     id="defs31">
    <clipPath
       id="clip0_214_196">
      <rect
         width="151.25"
         height="37.16"
         fill="white"
         transform="translate(0.0400391)"
         id="rect28" />
    </clipPath>
  </defs>
</svg>
